{"title":"Naked in New York (1993) Eric Stoltz DVDrip (Gay interest)","uid":4639944,"size":732379745,"categoryP":"video","categoryS":"movies","magnet":"?xt=urn:btih:28ec51b160ed098ff9934ec52367598c323f7ee0&amp;dn=Naked+in+New+York+%281993%29+Eric+Stoltz+DVDrip+%28Gay+interest%29&amp;tr=udp%3A%2F%2Ftracker.openbittorrent.com%3A80&amp;tr=udp%3A%2F%2Fopen.demonii.com%3A1337&amp;tr=udp%3A%2F%2Ftracker.coppersurfer.tk%3A6969&amp;tr=udp%3A%2F%2Fexodus.desync.com%3A6969","seeders":2,"leechers":1,"uploader":"Kuthumi","files":-1,"time":1231683094,"description":"Naked in New York (1993) Eric Stoltz DVDrip (Gay interest)\n &lt;a href=&quot;\nhttp://www.imdb.com/title/tt0110623/&quot; rel=&quot;nofollow&quot; target=&quot;_NEW&quot;&gt;\nhttp://www.imdb.com/title/tt0110623/&lt;/a&gt;\n\nWith Mary-Louise Parker, Ralph Macchio, Tony Curtis, Kathleen Turner and Timothy Dalton. Executive producer: Martin Scorsese.\n\nCharming comedy drama with Eric Stoltz (The Fly II) as an aspiring writer who has to learn his trade the hard way, including perhaps being seduced by actress Kathleen Turner. Including Ralph Macchio in one of his few major parts outside the Karate Kid series, this time as a gay friend.\n\nI could not find a torrent for this film anywhere, so I bought it and made a rip.\n\nOriginal fullscreen, DVDrip XviD 2-pass 608x432, really great stereo sound AC3.\nBurn tested, runs well in both my standalone DivX players.\n\nMediaInfo analysis:\nFormat/Info                      : Audio Video Interleave\nFile size                        : 698 MiB\nDuration                         : 1h 31mn\nOveral bit rate                  : 1071 Kbps\n\nVideo\nFormat                           : MPEG-4 Visual\nFormat profile                   : Streaming Video@L1\nFormat settings, BVOP            : Yes\nFormat settings, QPel            : No\nFormat settings, GMC             : No warppoints\nFormat settings, Matrix          : Default\nMuxing mode                      : Packet Bitstream\nCodec ID                         : XVID\nCodec ID/Hint                    : XviD\nDuration                         : 1h 31mn\nBit rate                         : 934 Kbps\nWidth                            : 672 pixels\nHeight                           : 496 pixels\nDisplay aspect ratio             : 4/3\nFrame rate                       : 23.976 fps\nResolution                       : 8 bits\nColorimetry                      : 4:2:0\nScan type                        : Progressive\nBits/(Pixel*Frame)               : 0.117\nStream size                      : 609 MiB\nWriting library                  : XviD 1.2.0.dev47 (UTC 2006-11-01)\n\nAudio\nFormat                           : MPEG Audio\nFormat version                   : Version 1\nFormat profile                   : Layer 3\nCodec ID                         : 55\nCodec ID/Hint                    : MP3\nDuration                         : 1h 31mn\nBit rate mode                    : Constant\nBit rate                         : 128 Kbps\nMinimum bit rate                 : 128 Kbps\nChannel(s)                       : 2 channels\nSampling rate                    : 48.0 KHz\nResolution                       : 16 bits\nStream size                      : 83.5 MiB\nWriting library                  : LAME3.97 \nEncoding settings                : CBR\n\nSource: NTSC Retail","torrent":{"xt":"urn:btih:28ec51b160ed098ff9934ec52367598c323f7ee0","amp;dn":"Naked+in+New+York+%281993%29+Eric+Stoltz+DVDrip+%28Gay+interest%29","amp;tr":["udp%3A%2F%2Ftracker.openbittorrent.com%3A80","udp%3A%2F%2Fopen.demonii.com%3A1337","udp%3A%2F%2Ftracker.coppersurfer.tk%3A6969","udp%3A%2F%2Fexodus.desync.com%3A6969"],"infoHash":"28ec51b160ed098ff9934ec52367598c323f7ee0","infoHashBuffer":{"type":"Buffer","data":[40,236,81,177,96,237,9,143,249,147,78,197,35,103,89,140,50,63,126,224]},"announce":[],"urlList":[]}}